<svg width="536" height="536" viewBox="0 0 536 536" fill="none" xmlns="http://www.w3.org/2000/svg">
<circle cx="268" cy="268" r="250" fill="white"/>
<g filter="url(#filter0_d_1_73)">
<path d="M269 329.5L337.416 409V507L290 511.5V458L269 409L247 458V511.5L200.584 507V409L269 329.5Z" fill="url(#paint0_linear_1_73)"/>
</g>
<path d="M268.416 55L359 88V145.5L268.416 102.5L178 145.5V88L268.416 55Z" fill="url(#paint1_linear_1_73)"/>
<path fill-rule="evenodd" clip-rule="evenodd" d="M188 25.5L268.5 18.5L109.554 243H37.6296L188 25.5ZM21 267.054V270.941L20 268.5L21 267.054ZM30.0387 293H100.772L181 505L91.5 443L30.0387 293Z" fill="#0193D8"/>
<path fill-rule="evenodd" clip-rule="evenodd" d="M349 25.5L268.5 18.5L427.446 243H499.37L349 25.5ZM516 267.054V270.941L517 268.5L516 267.054ZM506.961 293H436.228L356 505L445.5 443L506.961 293Z" fill="#223F9A"/>
<g filter="url(#filter1_df_1_73)">
<circle cx="268" cy="268" r="250" stroke="#1269B9" stroke-width="15" shape-rendering="crispEdges"/>
</g>
<defs>
<filter id="filter0_d_1_73" x="197.584" y="320.5" width="142.832" height="191" filterUnits="userSpaceOnUse" color-interpolation-filters="sRGB">
<feFlood flood-opacity="0" result="BackgroundImageFix"/>
<feColorMatrix in="SourceAlpha" type="matrix" values="0 0 0 0 0 0 0 0 0 0 0 0 0 0 0 0 0 0 127 0" result="hardAlpha"/>
<feOffset dy="-6"/>
<feGaussianBlur stdDeviation="1.5"/>
<feComposite in2="hardAlpha" operator="out"/>
<feColorMatrix type="matrix" values="0 0 0 0 0 0 0 0 0 0 0 0 0 0 0 0 0 0 0.25 0"/>
<feBlend mode="normal" in2="BackgroundImageFix" result="effect1_dropShadow_1_73"/>
<feBlend mode="normal" in="SourceGraphic" in2="effect1_dropShadow_1_73" result="shape"/>
</filter>
<filter id="filter1_df_1_73" x="0.5" y="0.5" width="535" height="535" filterUnits="userSpaceOnUse" color-interpolation-filters="sRGB">
<feFlood flood-opacity="0" result="BackgroundImageFix"/>
<feColorMatrix in="SourceAlpha" type="matrix" values="0 0 0 0 0 0 0 0 0 0 0 0 0 0 0 0 0 0 127 0" result="hardAlpha"/>
<feMorphology radius="5" operator="dilate" in="SourceAlpha" result="effect1_dropShadow_1_73"/>
<feOffset/>
<feGaussianBlur stdDeviation="2.5"/>
<feComposite in2="hardAlpha" operator="out"/>
<feColorMatrix type="matrix" values="0 0 0 0 0 0 0 0 0 0 0 0 0 0 0 0 0 0 0.25 0"/>
<feBlend mode="normal" in2="BackgroundImageFix" result="effect1_dropShadow_1_73"/>
<feBlend mode="normal" in="SourceGraphic" in2="effect1_dropShadow_1_73" result="shape"/>
<feGaussianBlur stdDeviation="1.5" result="effect2_foregroundBlur_1_73"/>
</filter>
<linearGradient id="paint0_linear_1_73" x1="268" y1="421" x2="270" y2="421" gradientUnits="userSpaceOnUse">
<stop stop-color="#0193D8"/>
<stop offset="1" stop-color="#223F9A"/>
</linearGradient>
<linearGradient id="paint1_linear_1_73" x1="268" y1="79" x2="269" y2="79" gradientUnits="userSpaceOnUse">
<stop stop-color="#0193D8"/>
<stop offset="1" stop-color="#223F9A"/>
</linearGradient>
</defs>
</svg>
